<svg width="28" height="28" viewBox="0 0 28 28" fill="none" xmlns="http://www.w3.org/2000/svg">
<path d="M10.3334 27.3333L9.8001 23.0667C9.51121 22.9555 9.23921 22.8222 8.9841 22.6667C8.7281 22.5111 8.47788 22.3444 8.23343 22.1667L4.26676 23.8333L0.600098 17.5L4.03343 14.9C4.01121 14.7444 4.0001 14.5942 4.0001 14.4493V13.5493C4.0001 13.4053 4.01121 13.2555 4.03343 13.1L0.600098 10.5L4.26676 4.16666L8.23343 5.83332C8.47788 5.65555 8.73343 5.48888 9.0001 5.33332C9.26676 5.17777 9.53343 5.04443 9.8001 4.93332L10.3334 0.666656H17.6668L18.2001 4.93332C18.489 5.04443 18.7614 5.17777 19.0174 5.33332C19.2725 5.48888 19.5223 5.65555 19.7668 5.83332L23.7334 4.16666L27.4001 10.5L23.9668 13.1C23.989 13.2555 24.0001 13.4053 24.0001 13.5493V14.4493C24.0001 14.5942 23.9779 14.7444 23.9334 14.9L27.3668 17.5L23.7001 23.8333L19.7668 22.1667C19.5223 22.3444 19.2668 22.5111 19.0001 22.6667C18.7334 22.8222 18.4668 22.9555 18.2001 23.0667L17.6668 27.3333H10.3334ZM14.0668 18.6667C15.3557 18.6667 16.4557 18.2111 17.3668 17.3C18.2779 16.3889 18.7334 15.2889 18.7334 14C18.7334 12.7111 18.2779 11.6111 17.3668 10.7C16.4557 9.78888 15.3557 9.33332 14.0668 9.33332C12.7557 9.33332 11.6499 9.78888 10.7494 10.7C9.84988 11.6111 9.4001 12.7111 9.4001 14C9.4001 15.2889 9.84988 16.3889 10.7494 17.3C11.6499 18.2111 12.7557 18.6667 14.0668 18.6667Z" fill="#C8C3B6"/>
</svg>
