<svg width="22" height="24" viewBox="0 0 22 24" fill="none" xmlns="http://www.w3.org/2000/svg">
<path d="M2.99992 24C2.26659 24 1.63903 23.7391 1.11725 23.2174C0.594585 22.6947 0.333252 22.0667 0.333252 21.3334V9.33335C0.333252 8.91113 0.427918 8.51113 0.617252 8.13335C0.805696 7.75558 1.06659 7.44446 1.39992 7.20002L9.39992 1.20002C9.64436 1.02224 9.89992 0.888909 10.1666 0.80002C10.4333 0.711131 10.711 0.666687 10.9999 0.666687C11.2888 0.666687 11.5666 0.711131 11.8333 0.80002C12.0999 0.888909 12.3555 1.02224 12.5999 1.20002L20.5999 7.20002C20.9333 7.44446 21.1946 7.75558 21.3839 8.13335C21.5724 8.51113 21.6666 8.91113 21.6666 9.33335V21.3334C21.6666 22.0667 21.4057 22.6947 20.8839 23.2174C20.3613 23.7391 19.7333 24 18.9999 24H13.6666V14.6667H8.33325V24H2.99992Z" fill="#C8C3B6"/>
</svg>
