<svg width="30" height="30" viewBox="0 0 30 30" fill="none" xmlns="http://www.w3.org/2000/svg">
<path d="M29.6364 10.3375L26.8782 7.57937C26.6557 7.35985 26.359 7.23166 26.0466 7.22009C25.7343 7.20852 25.4289 7.31441 25.1907 7.51687C24.8231 7.82983 24.3512 7.99324 23.8687 7.97472C23.3863 7.9562 22.9284 7.7571 22.5857 7.41687C22.2457 7.0743 22.0467 6.61651 22.0282 6.13417C22.0097 5.65184 22.173 5.18014 22.4857 4.8125C22.6882 4.57434 22.7941 4.26897 22.7825 3.9566C22.771 3.64423 22.6428 3.34753 22.4232 3.125L19.6626 0.363748C19.4293 0.130898 19.1132 0.00012207 18.7836 0.00012207C18.4539 0.00012207 18.1378 0.130898 17.9045 0.363748L13.5076 4.76C13.2362 5.03243 13.0314 5.364 12.9095 5.72875C12.8857 5.79888 12.8462 5.86259 12.7938 5.91494C12.7415 5.96729 12.6777 6.00688 12.6076 6.03062C12.2427 6.15257 11.9111 6.35752 11.6389 6.62937L0.36387 17.9044C0.13102 18.1377 0.000244141 18.4538 0.000244141 18.7834C0.000244141 19.1131 0.13102 19.4292 0.36387 19.6625L3.12512 22.4206C3.34765 22.6402 3.64435 22.7683 3.95672 22.7799C4.26909 22.7915 4.57446 22.6856 4.81262 22.4831C5.17942 22.1676 5.6519 22.0024 6.13538 22.0206C6.61886 22.0387 7.07762 22.2389 7.41973 22.581C7.76184 22.9231 7.96203 23.3819 7.98018 23.8654C7.99834 24.3488 7.83311 24.8213 7.51762 25.1881C7.31516 25.4263 7.20927 25.7316 7.22084 26.044C7.23241 26.3564 7.36059 26.6531 7.58012 26.8756L10.3382 29.6337C10.5715 29.8666 10.8877 29.9974 11.2173 29.9974C11.5469 29.9974 11.8631 29.8666 12.0964 29.6337L23.3714 18.3587C23.6431 18.0866 23.848 17.7553 23.9701 17.3906C23.9938 17.3203 24.0334 17.2563 24.0859 17.2039C24.1383 17.1514 24.2023 17.1118 24.2726 17.0881C24.6372 16.9662 24.9685 16.7614 25.2407 16.49L29.637 12.0931C29.869 11.8598 29.9992 11.5442 29.9991 11.2152C29.9989 10.8862 29.8685 10.5706 29.6364 10.3375ZM15.3632 8.48437C15.2704 8.57726 15.1601 8.65094 15.0388 8.7012C14.9175 8.75147 14.7874 8.77735 14.6561 8.77735C14.5247 8.77735 14.3947 8.75147 14.2733 8.7012C14.152 8.65094 14.0417 8.57726 13.9489 8.48437L13.2295 7.765C13.0465 7.57652 12.9451 7.32361 12.947 7.06093C12.949 6.79825 13.0543 6.5469 13.2401 6.3612C13.4259 6.17549 13.6772 6.07035 13.9399 6.06848C14.2026 6.06662 14.4555 6.16819 14.6439 6.35125L15.3632 7.07C15.4561 7.16286 15.5298 7.27311 15.5801 7.39445C15.6303 7.51579 15.6562 7.64584 15.6562 7.77719C15.6562 7.90853 15.6303 8.03858 15.5801 8.15992C15.5298 8.28126 15.4561 8.39151 15.3632 8.48437ZM18.1132 11.2344C17.9257 11.4218 17.6715 11.527 17.4064 11.527C17.1413 11.527 16.887 11.4218 16.6995 11.2344L16.012 10.5469C15.9191 10.454 15.8455 10.3438 15.7952 10.2224C15.7449 10.1011 15.7191 9.97102 15.7191 9.83969C15.7191 9.70835 15.7449 9.5783 15.7952 9.45696C15.8455 9.33562 15.9191 9.22537 16.012 9.1325C16.1996 8.94494 16.4539 8.83957 16.7192 8.83957C16.8505 8.83957 16.9806 8.86544 17.1019 8.9157C17.2232 8.96596 17.3335 9.03963 17.4264 9.1325L18.1139 9.82C18.2071 9.91285 18.281 10.0232 18.3315 10.1447C18.382 10.2662 18.408 10.3964 18.4081 10.528C18.4082 10.6596 18.3822 10.7898 18.3319 10.9114C18.2815 11.0329 18.2076 11.1433 18.1145 11.2362L18.1132 11.2344ZM20.8632 13.9844C20.7704 14.0773 20.6601 14.1509 20.5388 14.2012C20.4175 14.2515 20.2874 14.2773 20.1561 14.2773C20.0247 14.2773 19.8947 14.2515 19.7733 14.2012C19.652 14.1509 19.5417 14.0773 19.4489 13.9844L18.7614 13.2969C18.5784 13.1084 18.4769 12.8555 18.4789 12.5928C18.4809 12.3301 18.5862 12.0788 18.7719 11.8931C18.9577 11.7074 19.2091 11.6022 19.4718 11.6004C19.7345 11.5985 19.9873 11.7001 20.1757 11.8831L20.8632 12.5706C20.9567 12.6633 21.0309 12.7736 21.0817 12.895C21.1325 13.0165 21.1587 13.1468 21.159 13.2784C21.1593 13.4101 21.1336 13.5405 21.0834 13.6621C21.0332 13.7838 20.9594 13.8944 20.8664 13.9875L20.8632 13.9844ZM23.6401 16.7681C23.5473 16.861 23.437 16.9347 23.3157 16.985C23.1943 17.0352 23.0643 17.0611 22.9329 17.0611C22.8016 17.0611 22.6715 17.0352 22.5502 16.985C22.4289 16.9347 22.3186 16.861 22.2257 16.7681L21.5107 16.0494C21.4159 15.9568 21.3404 15.8463 21.2887 15.7243C21.2369 15.6022 21.21 15.4712 21.2093 15.3386C21.2087 15.2061 21.2344 15.0747 21.285 14.9522C21.3356 14.8297 21.41 14.7185 21.5039 14.625C21.5979 14.5315 21.7095 14.4577 21.8322 14.4077C21.955 14.3577 22.0864 14.3326 22.219 14.3339C22.3515 14.3352 22.4824 14.3628 22.6042 14.4151C22.726 14.4674 22.8361 14.5435 22.9282 14.6387L23.6439 15.3569C23.7367 15.4498 23.8103 15.5601 23.8606 15.6814C23.9108 15.8028 23.9366 15.9328 23.9365 16.0642C23.9365 16.1955 23.9105 16.3256 23.8602 16.4469C23.8099 16.5682 23.7362 16.6784 23.6432 16.7712L23.6401 16.7681Z" fill="#C8C3B6"/>
</svg>
