<svg width="40" height="40" viewBox="0 0 40 40" fill="none" xmlns="http://www.w3.org/2000/svg">
<mask id="mask0_323_106717" style="mask-type:luminance" maskUnits="userSpaceOnUse" x="0" y="0" width="40" height="40">
<path d="M40 0H0V40H40V0Z" fill="white"/>
</mask>
<g mask="url(#mask0_323_106717)">
<mask id="mask1_323_106717" style="mask-type:luminance" maskUnits="userSpaceOnUse" x="0" y="0" width="40" height="40">
<path d="M40 0H0V40H40V0Z" fill="white"/>
</mask>
<g mask="url(#mask1_323_106717)">
<path d="M32.0003 40H7.99973C5.87994 39.9939 3.8487 39.1492 2.34977 37.6502C0.850849 36.1513 0.00607241 34.1201 0 32.0003L0 7.99973C0.00607241 5.87994 0.850849 3.8487 2.34977 2.34977C3.8487 0.850849 5.87994 0.00607241 7.99973 0L32.0003 0C34.1201 0.00607241 36.1513 0.850849 37.6502 2.34977C39.1492 3.8487 39.9939 5.87994 40 7.99973V32.0003C39.9939 34.1201 39.1492 36.1513 37.6502 37.6502C36.1513 39.1492 34.1201 39.9939 32.0003 40Z" fill="#FBB81B"/>
<path d="M19.9988 24.3301C19.6319 24.3303 19.2732 24.4273 18.9682 24.6087C18.6633 24.7901 18.4256 25.0478 18.2854 25.3492C18.1452 25.6506 18.1086 25.9822 18.1804 26.3021C18.2521 26.622 18.429 26.9158 18.6885 27.1464C18.9481 27.3769 19.2788 27.5339 19.6387 27.5974C19.9986 27.661 20.3717 27.6283 20.7107 27.5034C21.0497 27.3785 21.3394 27.1671 21.5432 26.8958C21.7471 26.6246 21.8559 26.3057 21.8559 25.9796C21.8555 25.542 21.6597 25.1224 21.3115 24.8131C20.9632 24.5038 20.4911 24.3301 19.9988 24.3301Z" fill="#010101"/>
<path d="M21.3103 14.0219L21.8975 17.0577C22.0487 17.8316 22.2 18.6517 22.3215 19.5016H22.3512C22.5024 18.6517 22.713 17.8018 22.8912 17.0727L23.6769 14.0219H25.4874L26.2272 16.9817C26.4243 17.8167 26.6201 18.6517 26.7672 19.5016H26.7969C26.9022 18.6517 27.0535 17.8167 27.2195 16.9668L27.854 14.0219H30.1033L27.8446 21.4432H25.6845L24.9892 18.8323C24.8083 18.1032 24.6733 17.4352 24.5221 16.5242H24.4924C24.3828 17.3035 24.2214 18.0747 24.009 18.8323L23.2719 21.4432H21.1118L18.9692 14.0205L21.3103 14.0219Z" fill="#010101"/>
<path d="M17.7321 12.3711H14.4331V21.4433H17.7321V12.3711Z" fill="#010101"/>
<path d="M9.89697 6.18555V9.07091H14.5361V9.07214H17.6289V9.07091H22.2681V6.18555H9.89697Z" fill="#010101"/>
<g opacity="0.5">
<mask id="mask2_323_106717" style="mask-type:luminance" maskUnits="userSpaceOnUse" x="14" y="9" width="4" height="4">
<path d="M17.7326 9.07227H14.4336V12.3712H17.7326V9.07227Z" fill="white"/>
</mask>
<g mask="url(#mask2_323_106717)">
<path d="M17.7326 9.07227H14.4336V12.3712H17.7326V9.07227Z" fill="#1E1E1C"/>
</g>
</g>
</g>
<path d="M15.6699 31.6061V31.3403H17.4898V31.6061H16.7268V33.8146H16.4329V31.6061H15.6699Z" fill="#010101"/>
<path d="M18.384 33.8146L17.7205 31.3403H18.0191L18.5262 33.3555H18.5499L19.0665 31.3403H19.3982L19.9148 33.3555H19.9385L20.4456 31.3403H20.7441L20.0807 33.8146H19.7773L19.2418 31.8429H19.2229L18.6873 33.8146H18.384Z" fill="#010101"/>
<path d="M21.4041 31.3403V33.8146H21.1102V31.3403H21.4041Z" fill="#010101"/>
<path d="M23.9173 31.3403V33.8146H23.633L22.3108 31.8719H22.2871V33.8146H21.9932V31.3403H22.2776L23.6046 33.2878H23.6283V31.3403H23.9173Z" fill="#010101"/>
</g>
</svg>
