<svg width="480" height="323" viewBox="0 0 480 323" fill="none" xmlns="http://www.w3.org/2000/svg">
<path d="M42 317.508H438C433.661 304.681 425.645 293.803 414.352 290.575C397.827 285.86 380.34 298.826 363.853 293.951C354.485 291.184 347.111 283.121 339.362 276.425C310.124 251.159 270.067 243.696 235.47 257.066C217.388 264.053 200.911 276.27 182.388 281.464C158.435 288.182 133.387 282.61 108.754 281.692C84.7664 280.798 50.394 292.129 42 317.508Z" fill="#F3F5FD"/>
<path d="M365.875 216.765L392.203 317.011L388.449 318L362.122 217.754L365.875 216.765Z" fill="#C1D8ED"/>
<path d="M319.22 216.957L323.054 217.56L307.361 317.807L303.526 317.205L319.22 216.957Z" fill="#C1D8ED"/>
<path d="M369.399 121.099C369.399 121.099 401.459 119.07 401.459 147.125C401.459 175.18 396.738 214.388 373.111 218.782C349.485 223.176 314.584 221.851 306.482 220.476C296.526 218.786 292.186 195.657 305.447 194.109C343.076 189.715 324.852 124.138 369.399 121.099Z" fill="#C1D8ED"/>
<path d="M301.339 298.626L302.559 314.472" stroke="#E98862" stroke-width="21" stroke-miterlimit="10"/>
<path d="M278.577 317.39C278.228 317.389 277.883 317.318 277.561 317.183C277.239 317.048 276.947 316.851 276.702 316.603C276.456 316.354 276.262 316.06 276.13 315.737C275.998 315.414 275.931 315.067 275.932 314.718C275.932 314.653 275.932 314.588 275.94 314.523C275.98 314.018 276.163 313.534 276.467 313.129C276.772 312.724 277.185 312.415 277.66 312.237L293.47 306.933C293.777 306.832 294.101 306.798 294.422 306.834C294.743 306.869 295.052 306.974 295.328 307.141C297.502 308.651 300.102 309.423 302.746 309.343C304.806 309.197 306.783 308.473 308.451 307.255C308.598 307.135 308.776 307.059 308.964 307.035C309.152 307.012 309.343 307.043 309.515 307.125C309.686 307.206 309.831 307.335 309.932 307.496C310.033 307.656 310.087 307.843 310.086 308.033V315.771C310.086 316.231 309.904 316.672 309.579 316.997C309.254 317.323 308.814 317.505 308.354 317.505H308.347L278.577 317.39Z" fill="#C1D8ED"/>
<path d="M247.454 298.626L244.793 314.472" stroke="#E98862" stroke-width="21" stroke-miterlimit="10"/>
<path d="M233.836 300.968L263.66 186.05C264.327 183.483 265.825 181.209 267.92 179.586C270.016 177.963 272.59 177.082 275.239 177.081H340.6V177.123H377.217V188.362C377.217 191.602 376.58 194.811 375.342 197.805C374.104 200.798 372.29 203.518 370.002 205.81C367.714 208.101 364.999 209.918 362.01 211.159C359.021 212.399 355.817 213.037 352.582 213.037H334.723V213.108H303.545L312.13 304.528L288.302 306.772L280.001 218.37L256.999 306.998L233.836 300.968Z" fill="#262626"/>
<path d="M283.636 122.199C283.636 122.199 283.539 114.417 277.986 114.822C274.482 115.078 257.836 114.304 257.588 115.823C256.975 119.58 272.202 120.499 273.583 124L283.636 122.199Z" fill="#E98862"/>
<path d="M279.952 115.072C279.952 115.072 272.223 112.545 270.323 112.999C268.642 113.399 272.147 116.141 272.147 116.141L279.952 115.072Z" fill="#E98862"/>
<path d="M299.6 156.342L272.021 124.187L283.906 117.494L305.99 142.375L323.261 111.414C324.895 106.521 328.617 103.243 336.211 102.915C336.618 102.902 337.271 102.883 338.112 102.87C338.281 106.433 360.318 106.42 360.784 102.786C367.007 102.792 372.117 104.71 375.066 107.664C385.254 117.867 372.751 135.256 372.751 148.86C372.751 162.465 378.896 168.568 378.443 175.551C377.731 186.526 324.477 183.935 321.767 177.696C319.949 173.516 321.71 170.375 323.097 162.901H299.601L299.6 156.342ZM324.392 146.269C324.366 143.98 324.189 141.585 323.947 139.148L318.578 148.775H324.39C324.399 147.964 324.402 147.136 324.39 146.269H324.392Z" fill="#FBB81B"/>
<path d="M338.112 102.87C338.28 106.433 340.221 111.674 346.185 112.063C354.147 112.594 360.318 106.42 360.784 102.786H360.758C352.931 102.786 342.685 102.799 338.112 102.87Z" fill="#E98862"/>
<path d="M222.752 317.39C222.048 317.387 221.373 317.103 220.877 316.602C220.381 316.101 220.104 315.423 220.107 314.717C220.107 314.652 220.107 314.587 220.116 314.522C220.155 314.017 220.338 313.533 220.643 313.128C220.948 312.723 221.361 312.414 221.836 312.236L237.646 306.932C237.952 306.831 238.277 306.797 238.598 306.833C238.918 306.868 239.227 306.973 239.504 307.14C241.677 308.65 244.277 309.422 246.921 309.342C248.981 309.196 250.958 308.472 252.627 307.254C252.774 307.134 252.952 307.058 253.14 307.035C253.328 307.012 253.519 307.043 253.69 307.124C253.862 307.206 254.006 307.334 254.107 307.495C254.209 307.656 254.262 307.842 254.262 308.032V315.771C254.262 316.231 254.079 316.672 253.754 316.998C253.43 317.323 252.989 317.506 252.529 317.506H252.522L222.752 317.39Z" fill="#C1D8ED"/>
<path d="M408.201 169.18H414.275V317.508H408.201V169.18Z" fill="#C1D8ED"/>
<path d="M115.2 169.18H121.274V317.508H115.2V169.18Z" fill="#DEE8F5"/>
<path d="M339.92 169.18H345.995V317.508H339.92V169.18Z" fill="#DEE8F5"/>
<path d="M181.952 169.18H188.027V317.508H181.952V169.18Z" fill="#C1D8ED"/>
<path d="M106.801 163.054H422.673V171.419H106.801V163.054Z" fill="#DEE8F5"/>
<path d="M280.116 157.281C283.822 157.063 290.395 156.453 293.137 154.824C291.746 154.399 289.882 153.705 290.058 153.082C290.517 151.442 296.962 152.461 298.889 152.461L299.591 152.491V160.786C299.591 160.786 286.891 165.556 279.416 159.449C279.226 159.293 279.087 159.084 279.018 158.848C278.949 158.612 278.952 158.36 279.027 158.126C279.103 157.892 279.247 157.686 279.441 157.536C279.635 157.385 279.87 157.296 280.116 157.281Z" fill="#E98862"/>
<path d="M243.846 125.611L251.7 158.633C251.822 159.147 251.826 159.681 251.713 160.197C251.599 160.713 251.37 161.196 251.043 161.61C250.716 162.025 250.3 162.36 249.826 162.59C249.351 162.82 248.831 162.94 248.304 162.94H202C201.235 162.94 200.492 162.689 199.883 162.224C199.275 161.76 198.836 161.108 198.633 160.369L189.583 127.348C189.441 126.829 189.42 126.284 189.523 125.755C189.625 125.227 189.848 124.73 190.174 124.302C190.5 123.874 190.92 123.527 191.401 123.288C191.883 123.049 192.413 122.924 192.95 122.924H240.449C241.234 122.924 241.997 123.19 242.613 123.677C243.23 124.165 243.664 124.846 243.846 125.611Z" fill="#9EBCEA"/>
<path d="M268.184 162.94H212.22C211.951 162.94 211.684 162.887 211.435 162.784C211.186 162.681 210.96 162.529 210.769 162.339C210.579 162.148 210.428 161.921 210.325 161.672C210.222 161.423 210.168 161.155 210.168 160.886C210.168 160.616 210.222 160.348 210.325 160.099C210.428 159.85 210.579 159.623 210.769 159.432C210.96 159.242 211.186 159.09 211.435 158.987C211.684 158.884 211.951 158.831 212.22 158.831H268.184C268.728 158.831 269.25 159.047 269.635 159.432C270.02 159.818 270.236 160.341 270.236 160.886C270.236 161.431 270.02 161.953 269.635 162.339C269.25 162.724 268.728 162.94 268.184 162.94Z" fill="#9EBCEA"/>
<path d="M218.746 148.091C215.721 148.091 213.269 145.635 213.269 142.606C213.269 139.577 215.721 137.122 218.746 137.122C221.77 137.122 224.222 139.577 224.222 142.606C224.222 145.635 221.77 148.091 218.746 148.091Z" fill="white"/>
<path d="M354.787 94.3318C354.78 94.1504 354.78 93.9761 354.78 93.7882C354.774 92.6091 354.825 91.3264 354.942 89.9271L353.584 89.6744L344.606 88.0088C344.785 90.3091 344.75 92.621 344.502 94.9148C344.47 95.1739 344.437 95.4402 344.399 95.7058C344.373 95.9131 344.34 96.1263 344.302 96.3342C344.264 96.5422 344.237 96.7417 344.192 96.9432C344.115 97.3708 344.024 97.7984 343.914 98.2188C343.894 98.3198 343.868 98.4195 343.836 98.5175C343.835 98.5353 343.83 98.5528 343.823 98.5693C343.772 98.7831 343.707 99.0034 343.636 99.2107C343.565 99.4497 343.487 99.6829 343.396 99.9168C343.37 99.9874 343.344 100.066 343.312 100.137C343.228 100.37 343.131 100.597 343.028 100.817C342.918 101.069 342.795 101.316 342.666 101.555C342.659 101.555 342.659 101.562 342.659 101.562C342.171 102.519 341.485 103.36 340.647 104.03H356.902C355.899 102.294 354.864 99.3078 354.787 94.3318Z" fill="#E98862"/>
<path opacity="0.15" d="M342.656 101.565L351.242 94.9855L344.499 94.9155C344.304 97.2276 343.679 99.4828 342.656 101.565Z" fill="black"/>
<path d="M360.804 84.6382C360.088 88.7767 357.833 92.6961 354.188 94.032C349.861 95.6192 346.656 95.7267 341.667 95.7267C334.859 95.7267 335.084 88.6154 334.893 81.4496C334.699 74.2546 335.272 66.5368 337.963 64.0297C343.331 59.0257 359.097 62.195 361.014 70.5651C362.006 74.8947 361.484 80.6987 360.804 84.6382Z" fill="#E98862"/>
<path d="M330.686 63.9537C331.825 59.7712 335.375 57.7273 341.245 59.264C345.419 60.3569 345.948 59.3741 349.483 57.6696C351.507 56.6933 358.15 57.1397 359.794 61.6422C361.556 66.466 367.008 62.5595 367.514 70.4179C367.937 76.9955 366.665 85.5379 359.37 91.2869C358.206 92.4583 356.883 93.4603 355.441 94.2637C354.822 94.6317 354.672 94.3285 354.458 93.6437C353.698 91.2104 352.163 82.703 352.79 75.7801C352.893 74.6412 352.681 72.8713 349.765 72.7482C346.58 72.6141 338.302 73.3312 335.373 71.2283C335.373 71.2251 329.547 68.1336 330.686 63.9537Z" fill="#0F1011"/>
<path d="M344.62 81.4497C344.103 81.4497 343.683 81.0294 343.683 80.511C343.683 79.9925 344.103 79.5723 344.62 79.5723C345.138 79.5723 345.558 79.9925 345.558 80.511C345.558 81.0294 345.138 81.4497 344.62 81.4497Z" fill="#0F1011"/>
<path d="M337.226 80.8428C336.709 80.8428 336.289 80.4225 336.289 79.9041C336.289 79.3856 336.709 78.9653 337.226 78.9653C337.744 78.9653 338.164 79.3856 338.164 79.9041C338.164 80.4225 337.744 80.8428 337.226 80.8428Z" fill="#0F1011"/>
<path d="M335.602 77.9035H335.605L338.089 77.8724C338.202 77.8674 338.31 77.8185 338.388 77.7358C338.467 77.6531 338.51 77.5432 338.51 77.4291C338.509 77.315 338.464 77.2056 338.385 77.1238C338.305 77.0421 338.197 76.9944 338.083 76.9907H338.078L335.594 77.0218C335.48 77.0269 335.373 77.0759 335.295 77.1587C335.216 77.2414 335.173 77.3514 335.173 77.4655C335.174 77.5796 335.219 77.689 335.299 77.7707C335.378 77.8524 335.486 77.9 335.6 77.9035H335.602Z" fill="#0F1011"/>
<path d="M346.644 78.8098C346.751 78.8096 346.855 78.7698 346.936 78.698C347.016 78.6262 347.067 78.5274 347.08 78.4202C347.093 78.3131 347.066 78.205 347.004 78.1165C346.942 78.0279 346.851 77.9651 346.746 77.9398L344.298 77.3496C344.185 77.3223 344.065 77.3413 343.965 77.4025C343.865 77.4636 343.794 77.562 343.767 77.6758C343.74 77.7896 343.759 77.9096 343.82 78.0094C343.881 78.1092 343.979 78.1807 344.092 78.208L346.54 78.7982C346.574 78.8058 346.609 78.8098 346.644 78.8098Z" fill="#0F1011"/>
<path d="M349.497 82.8058C349.446 83.3308 349.501 83.8605 349.657 84.3642C349.812 84.8679 350.067 85.3356 350.405 85.74C350.743 86.1444 351.157 86.4776 351.625 86.72C352.093 86.9625 352.604 87.1095 353.128 87.1524C353.653 87.1953 354.181 87.1334 354.682 86.9701C355.183 86.8068 355.646 86.5455 356.045 86.2014C356.444 85.8572 356.771 85.4371 357.006 84.9654C357.242 84.4937 357.381 83.9798 357.416 83.4537C357.468 82.9311 357.414 82.4034 357.258 81.902C357.102 81.4006 356.847 80.9359 356.508 80.5354C356.169 80.1349 355.752 79.8069 355.284 79.5709C354.816 79.3349 354.304 79.1957 353.781 79.1617C350.949 79.0749 349.676 80.6174 349.497 82.8058Z" fill="#E98862"/>
<g opacity="0.15">
<path d="M340.46 85.7212C340.538 85.7213 340.612 85.6935 340.671 85.6429C340.73 85.5923 340.769 85.5222 340.78 85.4455C340.792 85.3687 340.775 85.2904 340.734 85.2247C340.693 85.1591 340.629 85.1104 340.555 85.0877L338.649 84.5014L339.982 81.5277C340.016 81.4496 340.018 81.3612 339.987 81.2818C339.956 81.2023 339.896 81.1381 339.818 81.1032C339.74 81.0683 339.652 81.0653 339.573 81.0951C339.493 81.1248 339.428 81.1849 339.392 81.2621L337.909 84.57C337.89 84.6119 337.88 84.6574 337.88 84.7034C337.88 84.7494 337.89 84.7949 337.909 84.8368C337.928 84.8787 337.955 84.9162 337.99 84.9466C338.024 84.977 338.065 84.9997 338.109 85.0132L340.365 85.707C340.396 85.7165 340.428 85.7213 340.46 85.7212Z" fill="black"/>
</g>
<path d="M344.187 87.9047C344.187 87.9047 340.727 88.2701 338.301 87.4214C338.301 87.4214 338.32 89.7031 341.058 89.9279C343.795 90.1527 344.187 87.9047 344.187 87.9047Z" fill="#F8FCFF"/>
<path d="M81.6455 5H226.656V98.2915H81.6455V5Z" fill="#DEE8F5"/>
<path d="M81.6455 5H226.656V20.2729H81.6455V5Z" fill="#C1D8ED"/>
<path d="M191.579 30.0083H216.393V54.8609H191.579V30.0083Z" fill="white"/>
<path d="M158.203 30.0083H183.017V54.8609H158.203V30.0083Z" fill="white"/>
<path d="M124.827 30.0083H149.641V54.8609H124.827V30.0083Z" fill="white"/>
<path d="M191.579 63.1323H216.393V87.9849H191.579V63.1323Z" fill="white"/>
<path d="M158.203 63.1323H183.017V87.9849H158.203V63.1323Z" fill="white"/>
<path d="M124.827 63.1323H149.641V87.9849H124.827V63.1323Z" fill="white"/>
<path d="M91.2592 30.0083H116.073V54.8609H91.2592V30.0083Z" fill="white"/>
<path d="M203.697 49.8235C207.771 49.8235 211.075 46.5152 211.075 42.4342C211.075 38.3532 207.771 35.0449 203.697 35.0449C199.622 35.0449 196.319 38.3532 196.319 42.4342C196.319 46.5152 199.622 49.8235 203.697 49.8235Z" fill="#0CBC8B"/>
<path d="M202.273 46.3972C202.108 46.3971 201.948 46.3337 201.827 46.2197L198.674 43.2396C198.612 43.181 198.563 43.1106 198.528 43.0327C198.493 42.9547 198.473 42.8706 198.471 42.7852C198.469 42.6997 198.483 42.6147 198.513 42.5348C198.544 42.4549 198.589 42.3818 198.648 42.3197C198.707 42.2575 198.777 42.2076 198.855 42.1726C198.932 42.1376 199.016 42.1184 199.102 42.1159C199.187 42.1134 199.272 42.1278 199.352 42.1582C199.431 42.1886 199.504 42.2345 199.566 42.2931L202.237 44.8197L207.789 38.6879C207.905 38.5601 208.067 38.4837 208.239 38.4754C208.411 38.467 208.579 38.5275 208.707 38.6435C208.834 38.7595 208.91 38.9215 208.919 39.0938C208.927 39.2661 208.867 39.4347 208.751 39.5625L202.752 46.1834C202.694 46.2477 202.624 46.2996 202.546 46.3362C202.467 46.3728 202.382 46.3934 202.296 46.3966L202.273 46.3972Z" fill="white"/>
<path d="M170.257 49.8235C174.332 49.8235 177.635 46.5152 177.635 42.4342C177.635 38.3532 174.332 35.0449 170.257 35.0449C166.183 35.0449 162.879 38.3532 162.879 42.4342C162.879 46.5152 166.183 49.8235 170.257 49.8235Z" fill="#0CBC8B"/>
<path d="M168.834 46.397C168.668 46.3969 168.508 46.3334 168.388 46.2195L165.235 43.2394C165.173 43.1807 165.123 43.1104 165.088 43.0324C165.053 42.9544 165.034 42.8703 165.032 42.7849C165.029 42.6995 165.043 42.6144 165.074 42.5346C165.104 42.4547 165.15 42.3816 165.208 42.3194C165.267 42.2573 165.337 42.2073 165.415 42.1723C165.493 42.1374 165.577 42.1181 165.662 42.1156C165.748 42.1132 165.832 42.1276 165.912 42.158C165.992 42.1884 166.065 42.2342 166.127 42.2929L168.798 44.8195L174.352 38.6876C174.467 38.5598 174.629 38.4833 174.801 38.4749C174.973 38.4665 175.142 38.527 175.269 38.6429C175.397 38.7589 175.473 38.9209 175.482 39.0933C175.49 39.2657 175.43 39.4344 175.314 39.5622L169.315 46.1832C169.257 46.247 169.187 46.2988 169.11 46.3354C169.032 46.372 168.948 46.3927 168.862 46.3963L168.834 46.397Z" fill="white"/>
<path d="M103.377 49.8235C107.452 49.8235 110.755 46.5152 110.755 42.4342C110.755 38.3532 107.452 35.0449 103.377 35.0449C99.3027 35.0449 95.9995 38.3532 95.9995 42.4342C95.9995 46.5152 99.3027 49.8235 103.377 49.8235Z" fill="#0CBC8B"/>
<path d="M101.954 46.397C101.788 46.3972 101.629 46.3336 101.508 46.2195L98.3557 43.2394C98.2304 43.121 98.1572 42.9576 98.1521 42.7851C98.1471 42.6127 98.2107 42.4453 98.3289 42.3198C98.4471 42.1943 98.6102 42.1209 98.7824 42.1159C98.9546 42.1108 99.1218 42.1745 99.2471 42.2929L101.919 44.8195L107.472 38.6876C107.588 38.5598 107.75 38.4833 107.922 38.4749C108.094 38.4665 108.263 38.527 108.39 38.6429C108.518 38.7589 108.594 38.9209 108.603 39.0933C108.611 39.2657 108.551 39.4344 108.435 39.5622L102.435 46.1832C102.378 46.247 102.308 46.2988 102.23 46.3354C102.153 46.372 102.068 46.3927 101.983 46.3963L101.954 46.397Z" fill="white"/>
<path d="M136.818 49.8235C140.892 49.8235 144.196 46.5152 144.196 42.4342C144.196 38.3532 140.892 35.0449 136.818 35.0449C132.743 35.0449 129.44 38.3532 129.44 42.4342C129.44 46.5152 132.743 49.8235 136.818 49.8235Z" fill="#0CBC8B"/>
<path d="M135.394 46.397C135.228 46.3972 135.069 46.3336 134.948 46.2195L131.796 43.2394C131.733 43.1807 131.684 43.1104 131.649 43.0324C131.614 42.9544 131.595 42.8703 131.592 42.7849C131.59 42.6995 131.604 42.6144 131.634 42.5346C131.665 42.4547 131.71 42.3816 131.769 42.3194C131.828 42.2573 131.898 42.2073 131.976 42.1723C132.054 42.1374 132.138 42.1181 132.223 42.1156C132.308 42.1132 132.393 42.1276 132.473 42.158C132.553 42.1884 132.625 42.2342 132.688 42.2929L135.358 44.8195L140.912 38.6876C140.969 38.6243 141.039 38.573 141.116 38.5365C141.193 38.5 141.277 38.479 141.362 38.4749C141.447 38.4707 141.532 38.4834 141.613 38.5123C141.693 38.5411 141.767 38.5855 141.83 38.6429C141.893 38.7004 141.944 38.7697 141.981 38.847C142.017 38.9242 142.038 39.008 142.042 39.0933C142.047 39.1787 142.034 39.264 142.005 39.3445C141.976 39.4249 141.932 39.4989 141.875 39.5622L135.875 46.1832C135.818 46.247 135.748 46.2988 135.67 46.3354C135.592 46.372 135.508 46.3927 135.422 46.3963L135.394 46.397Z" fill="white"/>
<path d="M203.257 82.948C207.332 82.948 210.635 79.6397 210.635 75.5587C210.635 71.4777 207.332 68.1694 203.257 68.1694C199.183 68.1694 195.879 71.4777 195.879 75.5587C195.879 79.6397 199.183 82.948 203.257 82.948Z" fill="#0CBC8B"/>
<path d="M201.834 79.5205C201.668 79.5204 201.508 79.457 201.388 79.343L198.235 76.3629C198.173 76.3043 198.123 76.2339 198.088 76.156C198.053 76.078 198.034 75.9939 198.032 75.9085C198.029 75.823 198.043 75.738 198.074 75.6581C198.104 75.5782 198.15 75.5051 198.208 75.443C198.267 75.3808 198.337 75.3309 198.415 75.2959C198.493 75.2609 198.577 75.2417 198.662 75.2392C198.748 75.2367 198.832 75.2511 198.912 75.2815C198.992 75.3119 199.065 75.3578 199.127 75.4164L201.798 77.943L207.352 71.8131C207.467 71.6853 207.629 71.6088 207.801 71.6004C207.973 71.592 208.142 71.6524 208.269 71.7684C208.397 71.8844 208.473 72.0464 208.482 72.2188C208.49 72.3912 208.43 72.5599 208.314 72.6877L202.315 79.3087C202.257 79.3725 202.187 79.4243 202.11 79.4609C202.032 79.4975 201.948 79.5182 201.862 79.5218L201.834 79.5205Z" fill="white"/>
<path d="M136.377 82.948C140.452 82.948 143.755 79.6397 143.755 75.5587C143.755 71.4777 140.452 68.1694 136.377 68.1694C132.303 68.1694 129 71.4777 129 75.5587C129 79.6397 132.303 82.948 136.377 82.948Z" fill="#0CBC8B"/>
<path d="M134.954 79.5205C134.788 79.5207 134.629 79.4572 134.508 79.343L131.356 76.3629C131.23 76.2445 131.157 76.0812 131.152 75.9087C131.147 75.7362 131.211 75.5688 131.329 75.4433C131.447 75.3178 131.61 75.2445 131.782 75.2394C131.955 75.2344 132.122 75.298 132.247 75.4164L134.919 77.943L140.472 71.8131C140.53 71.7498 140.599 71.6985 140.676 71.662C140.753 71.6255 140.837 71.6045 140.922 71.6004C141.007 71.5962 141.092 71.6089 141.173 71.6378C141.253 71.6666 141.327 71.711 141.39 71.7684C141.453 71.8258 141.505 71.8952 141.541 71.9725C141.578 72.0497 141.598 72.1334 141.603 72.2188C141.607 72.3042 141.594 72.3895 141.565 72.47C141.536 72.5504 141.492 72.6244 141.435 72.6877L135.435 79.3087C135.378 79.3725 135.308 79.4243 135.23 79.4609C135.153 79.4975 135.068 79.5182 134.983 79.5218L134.954 79.5205Z" fill="white"/>
<path d="M169.818 82.948C173.892 82.948 177.196 79.6397 177.196 75.5587C177.196 71.4777 173.892 68.1694 169.818 68.1694C165.743 68.1694 162.44 71.4777 162.44 75.5587C162.44 79.6397 165.743 82.948 169.818 82.948Z" fill="#0CBC8B"/>
<path d="M168.394 79.5205C168.228 79.5207 168.069 79.4572 167.948 79.343L164.796 76.3629C164.733 76.3043 164.684 76.2339 164.649 76.156C164.614 76.078 164.595 75.9939 164.592 75.9085C164.59 75.823 164.604 75.738 164.634 75.6581C164.665 75.5782 164.71 75.5051 164.769 75.443C164.828 75.3808 164.898 75.3309 164.976 75.2959C165.054 75.2609 165.138 75.2417 165.223 75.2392C165.308 75.2367 165.393 75.2511 165.473 75.2815C165.553 75.3119 165.625 75.3578 165.688 75.4164L168.358 77.943L173.912 71.8131C173.969 71.7498 174.039 71.6985 174.116 71.662C174.193 71.6255 174.277 71.6045 174.362 71.6004C174.447 71.5962 174.532 71.6089 174.613 71.6378C174.693 71.6666 174.767 71.711 174.83 71.7684C174.893 71.8258 174.944 71.8952 174.981 71.9725C175.017 72.0497 175.038 72.1334 175.042 72.2188C175.047 72.3042 175.034 72.3895 175.005 72.47C174.976 72.5504 174.932 72.6244 174.875 72.6877L168.875 79.3087C168.818 79.3725 168.748 79.4243 168.67 79.4609C168.592 79.4975 168.508 79.5182 168.422 79.5218L168.394 79.5205Z" fill="white"/>
<path d="M126.643 208.674L131.164 209.745L125.497 233.751L120.976 232.68L126.643 208.674Z" fill="#F0F6FF"/>
<path d="M121.671 206.814L125.552 227.884L123.042 228.348L119.161 207.277L121.671 206.814Z" fill="#C1D8ED"/>
<path d="M121.669 206.807L122.111 209.131L119.604 209.609L119.162 207.285L121.669 206.807Z" fill="#DEE8F5"/>
<path d="M129.44 212.166L130.833 212.715L122.701 233.389L121.308 232.84L129.44 212.166Z" fill="#0CBC8B"/>
<path d="M118.963 221.214H131.221V236.905H118.963V221.214Z" fill="#C1D8ED"/>
<path d="M145.736 268.023H150.759V317.508H145.736V268.023Z" fill="#C1D8ED"/>
<path d="M149.869 268.023H154.892V317.508H149.869V268.023Z" fill="#DEE8F5"/>
<path d="M83.177 268.023H88.1997V317.508H83.177V268.023Z" fill="#C1D8ED"/>
<path d="M87.3103 268.023H92.333V317.508H87.3103V268.023Z" fill="#DEE8F5"/>
<path d="M131.96 268.023H136.983V317.508H131.96V268.023Z" fill="#C1D8ED"/>
<path d="M136.094 268.023H141.116V317.508H136.094V268.023Z" fill="#DEE8F5"/>
<path d="M69.4011 268.023H74.4238V317.508H69.4011V268.023Z" fill="#C1D8ED"/>
<path d="M73.5344 268.023H78.5571V317.508H73.5344V268.023Z" fill="#DEE8F5"/>
<path d="M69.4021 236.347H136.952V269.21H69.4021V236.347Z" fill="#C1D8ED"/>
<path d="M87.342 236.347H154.892V269.21H87.342V236.347Z" fill="#DEE8F5"/>
<g opacity="0.53">
<path d="M90.9761 241.019H151.258V264.393H90.9761V241.019Z" fill="#F3F5FD"/>
</g>
<path d="M121.117 255.387C119.639 255.387 118.44 254.186 118.44 252.705C118.44 251.224 119.639 250.024 121.117 250.024C122.596 250.024 123.794 251.224 123.794 252.705C123.794 254.186 122.596 255.387 121.117 255.387Z" fill="white"/>
<path d="M83.284 115.735C98.5863 115.735 110.991 103.311 110.991 87.9848C110.991 72.6586 98.5863 60.2344 83.284 60.2344C67.9817 60.2344 55.5767 72.6586 55.5767 87.9848C55.5767 103.311 67.9817 115.735 83.284 115.735Z" fill="#C1D8ED"/>
<path d="M83.2838 111.648C96.3327 111.648 106.911 101.054 106.911 87.9846C106.911 74.9154 96.3327 64.3208 83.2838 64.3208C70.235 64.3208 59.6567 74.9154 59.6567 87.9846C59.6567 101.054 70.235 111.648 83.2838 111.648Z" fill="#F3F5FD"/>
<path d="M95.1205 84.1877L84.0712 90.407C83.8264 90.5425 83.5508 90.6123 83.2711 90.6097C82.9913 90.6071 82.7171 90.5321 82.4748 90.3921C82.2326 90.2509 82.0315 90.0486 81.8915 89.8053C81.7516 89.5621 81.6777 89.2864 81.6772 89.0057V72.06C81.6857 71.6387 81.8587 71.2375 82.1592 70.9426C82.4596 70.6476 82.8636 70.4824 83.2843 70.4824C83.705 70.4824 84.109 70.6476 84.4095 70.9426C84.7099 71.2375 84.8829 71.6387 84.8914 72.06V86.2556L93.5435 81.3812C93.7275 81.2775 93.9301 81.2111 94.1397 81.1858C94.3493 81.1605 94.5618 81.1768 94.7652 81.2338C94.9685 81.2907 95.1586 81.3873 95.3247 81.5178C95.4907 81.6484 95.6295 81.8104 95.7331 81.9947C95.8366 82.179 95.9029 82.3819 95.9282 82.5918C95.9534 82.8017 95.9371 83.0146 95.8803 83.2182C95.8234 83.4219 95.727 83.6123 95.5966 83.7786C95.4663 83.945 95.3045 84.084 95.1205 84.1877Z" fill="#DEE8F5"/>
<path d="M95.1205 84.1877L84.0712 90.407C83.8264 90.5425 83.5508 90.6123 83.2711 90.6097C82.9913 90.6071 82.7171 90.5321 82.4748 90.3921C82.2326 90.2509 82.0315 90.0486 81.8915 89.8053C81.7516 89.5621 81.6777 89.2864 81.6772 89.0057V72.06C81.6857 71.6387 81.8587 71.2375 82.1592 70.9426C82.4596 70.6476 82.8636 70.4824 83.2843 70.4824C83.705 70.4824 84.109 70.6476 84.4095 70.9426C84.7099 71.2375 84.8829 71.6387 84.8914 72.06V86.2556L93.5435 81.3812C93.7275 81.2775 93.9301 81.2111 94.1397 81.1858C94.3493 81.1605 94.5618 81.1768 94.7652 81.2338C94.9685 81.2907 95.1586 81.3873 95.3247 81.5178C95.4907 81.6484 95.6295 81.8104 95.7331 81.9947C95.8366 82.179 95.9029 82.3819 95.9282 82.5918C95.9534 82.8017 95.9371 83.0146 95.8803 83.2182C95.8234 83.4219 95.727 83.6123 95.5966 83.7786C95.4663 83.945 95.3045 84.084 95.1205 84.1877Z" fill="#C1D8ED"/>
<line x1="29.5" y1="317.5" x2="454.5" y2="317.5" stroke="#D9D9D9" stroke-linecap="round"/>
</svg>
